<?xml version="1.0" encoding="UTF-8" standalone="no" ?>
<!DOCTYPE svg PUBLIC "-//W3C//DTD SVG 1.1//EN" "http://www.w3.org/Graphics/SVG/1.1/DTD/svg11.dtd">
<svg xmlns="http://www.w3.org/2000/svg" xmlns:xlink="http://www.w3.org/1999/xlink" version="1.1" width="512" height="512" viewBox="0 0 640 640" xml:space="preserve">
<desc>Created with Fabric.js 5.3.0</desc>
<defs>
</defs>
<g transform="matrix(5.3 0 0 3.43 320.13 349.6)" id="1MqoekPuPIR9El65_kWjc"  >
<path style="stroke: rgb(60,166,106); stroke-width: 0; stroke-dasharray: none; stroke-linecap: butt; stroke-dashoffset: 0; stroke-linejoin: miter; stroke-miterlimit: 4; fill: rgb(229,206,114); fill-rule: nonzero; opacity: 1;" vector-effect="non-scaling-stroke"  transform=" translate(0, 0)" d="M -54.70085 -47.93479 C -54.70085 -49.72926 -54.23951 -51.45024 -53.418330000000005 -52.71912 C -52.597150000000006 -53.988 -51.483380000000004 -54.700849999999996 -50.32206000000001 -54.700849999999996 L 50.32205999999999 -54.700849999999996 L 50.32205999999999 -54.700849999999996 C 51.48338999999999 -54.700849999999996 52.59714999999999 -53.98799999999999 53.41832999999999 -52.71912 C 54.23950999999999 -51.450239999999994 54.70084999999999 -49.72926 54.70084999999999 -47.93479 L 54.70084999999999 47.93479 L 54.70084999999999 47.93479 C 54.70084999999999 51.67159 52.74039999999999 54.70086 50.322059999999986 54.70086 L -50.322060000000015 54.70086 L -50.322060000000015 54.70086 C -52.740400000000015 54.70086 -54.70085000000002 51.67159 -54.70085000000002 47.93479 z" stroke-linecap="round" />
</g>
<g transform="matrix(2.77 0 0 1.12 181.7368384355 161.9760683761)" id="K9nyCSNScByMglQ57sUz7"  >
<path style="stroke: rgb(60,166,106); stroke-width: 0; stroke-dasharray: none; stroke-linecap: butt; stroke-dashoffset: 0; stroke-linejoin: miter; stroke-miterlimit: 4; fill: rgb(199,161,86); fill-rule: nonzero; opacity: 1;" vector-effect="non-scaling-stroke"  transform=" translate(-0.000005, 0)" d="M -54.70085 -35.71169 C -54.70085 -46.19911 -51.24486 -54.700849999999996 -46.981680000000004 -54.700849999999996 L 46.98168999999999 -54.700849999999996 L 46.98168999999999 -54.700849999999996 C 51.24486999999999 -54.700849999999996 54.70085999999999 -46.19911 54.70085999999999 -35.71169 L 54.70085999999999 35.71169 L 54.70085999999999 35.71169 C 54.70085999999999 46.19911 51.24486999999999 54.700849999999996 46.98168999999999 54.700849999999996 L -46.981680000000004 54.700849999999996 L -46.981680000000004 54.700849999999996 C -51.24486 54.700849999999996 -54.70085 46.19911 -54.70085 35.71169 z" stroke-linecap="round" />
</g>
</svg>